<?xml version="1.0" standalone="no"?><!DOCTYPE svg PUBLIC "-//W3C//DTD SVG 1.1//EN" "http://www.w3.org/Graphics/SVG/1.1/DTD/svg11.dtd"><svg t="1723106311713" class="icon" viewBox="0 0 1024 1024" version="1.1" xmlns="http://www.w3.org/2000/svg" p-id="17637" xmlns:xlink="http://www.w3.org/1999/xlink" width="128" height="128"><path d="M111.17 132.21h310.97V377.4H111.17z" fill="#8a8a8a" p-id="17638"></path><path d="M422.14 425.24H111.17c-23.92 0-47.84-17.94-47.84-47.84V132.21c0-23.92 17.94-47.84 47.84-47.84h310.97c29.9 5.98 47.84 23.92 47.84 47.84V377.4c0 23.92-17.94 47.84-47.84 47.84z m-263.13-89.7h227.24V180.05H159.01v155.49z m442.54 358.8h310.97v245.19H601.55V694.34z m0 0" fill="#8a8a8a" p-id="17639"></path><path d="M918.5 987.37H601.55c-23.92 0-47.84-17.94-47.84-47.84V694.34c0-23.92 17.94-47.84 47.84-47.84h310.97c23.92 0 47.84 17.94 47.84 47.84v245.19c-0.01 23.92-17.94 47.84-41.86 47.84z m-269.11-89.7h227.24V742.19H649.39v155.48z m0 0M601.55 132.21h310.97v382.73H601.55z" fill="#8a8a8a" p-id="17640"></path><path d="M918.5 556.8H601.55c-23.92 0-47.84-17.94-47.84-47.84V132.21c0-23.92 17.94-47.84 47.84-47.84h310.97c23.92 0 47.84 17.94 47.84 47.84v382.73c-0.01 23.92-17.94 41.86-41.86 41.86z m-269.11-89.7h227.24V180.05H649.39V467.1z m0 0M111.17 556.8h310.97v382.73H111.17z" fill="#8a8a8a" p-id="17641"></path><path d="M422.14 987.37H111.17c-23.92 0-47.84-17.94-47.84-47.84V556.8c0-23.92 17.94-47.84 47.84-47.84h310.97c29.9 5.98 47.84 23.92 47.84 47.84v382.73c0 23.92-17.94 47.84-47.84 47.84z m-263.13-89.7h227.24V604.64H159.01v293.03z m0 0" fill="#8a8a8a" p-id="17642"></path></svg>